<mxfile host="Electron" agent="Mozilla/5.0 (Windows NT 10.0; Win64; x64) AppleWebKit/537.36 (KHTML, like Gecko) draw.io/26.0.9 Chrome/128.0.6613.186 Electron/32.2.5 Safari/537.36" version="26.0.9">
  <diagram id="prtHgNgQTEPvFCAcTncT" name="Page-1">
    <mxGraphModel dx="2585" dy="3616" grid="1" gridSize="10" guides="1" tooltips="1" connect="1" arrows="1" fold="1" page="1" pageScale="1" pageWidth="827" pageHeight="1169" math="0" shadow="0">
      <root>
        <mxCell id="0" />
        <mxCell id="1" parent="0" />
        <mxCell id="dNxyNK7c78bLwvsdeMH5-11" value="Gestion de l&#39;ecole de formation EFGB" style="swimlane;html=1;startSize=60;horizontal=1;containerType=tree;glass=0;" parent="1" vertex="1">
          <mxGeometry x="510" y="-1220" width="920" height="980" as="geometry" />
        </mxCell>
        <mxCell id="xym6LAQNSdxRwfko9QI_-4" value="Authentification" style="ellipse;whiteSpace=wrap;html=1;" vertex="1" parent="dNxyNK7c78bLwvsdeMH5-11">
          <mxGeometry x="631" y="210" width="140" height="70" as="geometry" />
        </mxCell>
        <mxCell id="xym6LAQNSdxRwfko9QI_-5" value="Gestion des comptes utilisateurs" style="ellipse;whiteSpace=wrap;html=1;" vertex="1" parent="dNxyNK7c78bLwvsdeMH5-11">
          <mxGeometry x="60" y="755" width="140" height="70" as="geometry" />
        </mxCell>
        <mxCell id="xym6LAQNSdxRwfko9QI_-6" value="Gestion des emplois du temps academiques" style="ellipse;whiteSpace=wrap;html=1;" vertex="1" parent="dNxyNK7c78bLwvsdeMH5-11">
          <mxGeometry x="50" y="860" width="140" height="70" as="geometry" />
        </mxCell>
        <mxCell id="xym6LAQNSdxRwfko9QI_-7" value="Consultation des&amp;nbsp;&lt;div&gt;plannigs de cours&lt;/div&gt;" style="ellipse;whiteSpace=wrap;html=1;" vertex="1" parent="dNxyNK7c78bLwvsdeMH5-11">
          <mxGeometry x="60" y="400" width="140" height="70" as="geometry" />
        </mxCell>
        <mxCell id="xym6LAQNSdxRwfko9QI_-8" value="Consultation des&amp;nbsp;&lt;div&gt;plannigs d&#39;examen&lt;/div&gt;" style="ellipse;whiteSpace=wrap;html=1;" vertex="1" parent="dNxyNK7c78bLwvsdeMH5-11">
          <mxGeometry x="110" y="290" width="140" height="70" as="geometry" />
        </mxCell>
        <mxCell id="xym6LAQNSdxRwfko9QI_-9" value="Consultation des notes&amp;nbsp;&lt;div&gt;et releves de notes&amp;nbsp;&lt;/div&gt;" style="ellipse;whiteSpace=wrap;html=1;" vertex="1" parent="dNxyNK7c78bLwvsdeMH5-11">
          <mxGeometry x="450" y="400" width="140" height="70" as="geometry" />
        </mxCell>
        <mxCell id="xym6LAQNSdxRwfko9QI_-10" value="Inscription aux cours" style="ellipse;whiteSpace=wrap;html=1;" vertex="1" parent="dNxyNK7c78bLwvsdeMH5-11">
          <mxGeometry x="240" y="400" width="140" height="70" as="geometry" />
        </mxCell>
        <mxCell id="xym6LAQNSdxRwfko9QI_-11" value="Soumission des devoirs" style="ellipse;whiteSpace=wrap;html=1;" vertex="1" parent="dNxyNK7c78bLwvsdeMH5-11">
          <mxGeometry x="450" y="290" width="140" height="70" as="geometry" />
        </mxCell>
        <mxCell id="xym6LAQNSdxRwfko9QI_-12" value="Cration et gestion des cours" style="ellipse;whiteSpace=wrap;html=1;" vertex="1" parent="dNxyNK7c78bLwvsdeMH5-11">
          <mxGeometry x="230" y="646" width="140" height="70" as="geometry" />
        </mxCell>
        <mxCell id="xym6LAQNSdxRwfko9QI_-13" value="Poster des devoirs" style="ellipse;whiteSpace=wrap;html=1;" vertex="1" parent="dNxyNK7c78bLwvsdeMH5-11">
          <mxGeometry x="230" y="550" width="140" height="70" as="geometry" />
        </mxCell>
        <mxCell id="xym6LAQNSdxRwfko9QI_-14" value="Noter les travaux des etudiants" style="ellipse;whiteSpace=wrap;html=1;" vertex="1" parent="dNxyNK7c78bLwvsdeMH5-11">
          <mxGeometry x="440" y="550" width="140" height="70" as="geometry" />
        </mxCell>
        <mxCell id="xym6LAQNSdxRwfko9QI_-15" value="Telecharger des materiaux de cours" style="ellipse;whiteSpace=wrap;html=1;" vertex="1" parent="dNxyNK7c78bLwvsdeMH5-11">
          <mxGeometry x="450" y="640" width="140" height="70" as="geometry" />
        </mxCell>
        <mxCell id="xym6LAQNSdxRwfko9QI_-16" value="Generer des rapports de progression" style="ellipse;whiteSpace=wrap;html=1;" vertex="1" parent="dNxyNK7c78bLwvsdeMH5-11">
          <mxGeometry x="680" y="590" width="140" height="70" as="geometry" />
        </mxCell>
        <mxCell id="xym6LAQNSdxRwfko9QI_-17" value="Publication des&amp;nbsp;&lt;div&gt;annonces et actualites&lt;/div&gt;" style="ellipse;whiteSpace=wrap;html=1;" vertex="1" parent="dNxyNK7c78bLwvsdeMH5-11">
          <mxGeometry x="220" y="810" width="140" height="70" as="geometry" />
        </mxCell>
        <mxCell id="xym6LAQNSdxRwfko9QI_-18" value="Acces aux ressources pedagogiques et administratives" style="ellipse;whiteSpace=wrap;html=1;" vertex="1" parent="dNxyNK7c78bLwvsdeMH5-11">
          <mxGeometry x="740" y="440" width="140" height="70" as="geometry" />
        </mxCell>
        <mxCell id="xym6LAQNSdxRwfko9QI_-19" value="Consulter les annonces publiques" style="ellipse;whiteSpace=wrap;html=1;" vertex="1" parent="dNxyNK7c78bLwvsdeMH5-11">
          <mxGeometry x="320" y="120" width="140" height="70" as="geometry" />
        </mxCell>
        <mxCell id="xym6LAQNSdxRwfko9QI_-20" value="Consulter les informations generales" style="ellipse;whiteSpace=wrap;html=1;" vertex="1" parent="dNxyNK7c78bLwvsdeMH5-11">
          <mxGeometry x="147" y="170" width="140" height="70" as="geometry" />
        </mxCell>
        <mxCell id="xym6LAQNSdxRwfko9QI_-36" style="edgeStyle=orthogonalEdgeStyle;rounded=0;orthogonalLoop=1;jettySize=auto;html=1;exitX=0.5;exitY=0.5;exitDx=0;exitDy=0;exitPerimeter=0;entryX=0.5;entryY=0;entryDx=0;entryDy=0;" edge="1" parent="dNxyNK7c78bLwvsdeMH5-11" target="xym6LAQNSdxRwfko9QI_-4">
          <mxGeometry relative="1" as="geometry">
            <mxPoint x="-112.00000000000023" y="100" as="sourcePoint" />
            <mxPoint x="692.0000000000002" y="180" as="targetPoint" />
          </mxGeometry>
        </mxCell>
        <mxCell id="xym6LAQNSdxRwfko9QI_-43" style="edgeStyle=orthogonalEdgeStyle;rounded=0;orthogonalLoop=1;jettySize=auto;html=1;exitX=0.5;exitY=0.5;exitDx=0;exitDy=0;exitPerimeter=0;entryX=0.076;entryY=0.311;entryDx=0;entryDy=0;entryPerimeter=0;" edge="1" parent="dNxyNK7c78bLwvsdeMH5-11">
          <mxGeometry relative="1" as="geometry">
            <mxPoint x="-103.67000000000002" y="378.23" as="sourcePoint" />
            <mxPoint x="459.97000000000014" y="330" as="targetPoint" />
            <Array as="points">
              <mxPoint x="460.33000000000004" y="378.23" />
            </Array>
          </mxGeometry>
        </mxCell>
        <mxCell id="xym6LAQNSdxRwfko9QI_-57" value="&amp;lt;&amp;lt;include&amp;gt;&amp;gt;" style="html=1;verticalAlign=bottom;labelBackgroundColor=none;endArrow=open;endFill=0;dashed=1;rounded=0;exitX=1;exitY=0.5;exitDx=0;exitDy=0;entryX=1;entryY=0;entryDx=0;entryDy=0;" edge="1" parent="dNxyNK7c78bLwvsdeMH5-11" source="xym6LAQNSdxRwfko9QI_-5" target="xym6LAQNSdxRwfko9QI_-4">
          <mxGeometry width="160" relative="1" as="geometry">
            <mxPoint x="340" y="788.89" as="sourcePoint" />
            <mxPoint x="500" y="788.89" as="targetPoint" />
            <Array as="points">
              <mxPoint x="900" y="790" />
              <mxPoint x="900" y="440" />
              <mxPoint x="900" y="221" />
            </Array>
          </mxGeometry>
        </mxCell>
        <mxCell id="xym6LAQNSdxRwfko9QI_-58" value="&amp;lt;&amp;lt;include&amp;gt;&amp;gt;" style="html=1;verticalAlign=bottom;labelBackgroundColor=none;endArrow=open;endFill=0;dashed=1;rounded=0;exitX=1;exitY=0.5;exitDx=0;exitDy=0;entryX=1;entryY=0.5;entryDx=0;entryDy=0;" edge="1" parent="dNxyNK7c78bLwvsdeMH5-11" source="xym6LAQNSdxRwfko9QI_-6" target="xym6LAQNSdxRwfko9QI_-4">
          <mxGeometry width="160" relative="1" as="geometry">
            <mxPoint x="340" y="930" as="sourcePoint" />
            <mxPoint x="500" y="930" as="targetPoint" />
            <Array as="points">
              <mxPoint x="900" y="895" />
              <mxPoint x="900" y="550" />
              <mxPoint x="900" y="250" />
            </Array>
          </mxGeometry>
        </mxCell>
        <mxCell id="xym6LAQNSdxRwfko9QI_-59" value="&amp;lt;&amp;lt;include&amp;gt;&amp;gt;" style="html=1;verticalAlign=bottom;labelBackgroundColor=none;endArrow=open;endFill=0;dashed=1;rounded=0;exitX=1;exitY=0.5;exitDx=0;exitDy=0;" edge="1" parent="dNxyNK7c78bLwvsdeMH5-11" source="xym6LAQNSdxRwfko9QI_-7">
          <mxGeometry width="160" relative="1" as="geometry">
            <mxPoint x="240" y="650" as="sourcePoint" />
            <mxPoint x="630" y="240" as="targetPoint" />
            <Array as="points">
              <mxPoint x="460" y="240" />
            </Array>
          </mxGeometry>
        </mxCell>
        <mxCell id="xym6LAQNSdxRwfko9QI_-61" value="&amp;lt;&amp;lt;include&amp;gt;&amp;gt;" style="html=1;verticalAlign=bottom;labelBackgroundColor=none;endArrow=open;endFill=0;dashed=1;rounded=0;entryX=0;entryY=1;entryDx=0;entryDy=0;exitX=1;exitY=0;exitDx=0;exitDy=0;" edge="1" parent="dNxyNK7c78bLwvsdeMH5-11" source="xym6LAQNSdxRwfko9QI_-9" target="xym6LAQNSdxRwfko9QI_-4">
          <mxGeometry width="160" relative="1" as="geometry">
            <mxPoint x="600" y="400" as="sourcePoint" />
            <mxPoint x="400" y="650" as="targetPoint" />
          </mxGeometry>
        </mxCell>
        <mxCell id="xym6LAQNSdxRwfko9QI_-62" value="&amp;lt;&amp;lt;include&amp;gt;&amp;gt;" style="html=1;verticalAlign=bottom;labelBackgroundColor=none;endArrow=open;endFill=0;dashed=1;rounded=0;exitX=1;exitY=0.5;exitDx=0;exitDy=0;entryX=0;entryY=1;entryDx=0;entryDy=0;" edge="1" parent="dNxyNK7c78bLwvsdeMH5-11" source="xym6LAQNSdxRwfko9QI_-10" target="xym6LAQNSdxRwfko9QI_-4">
          <mxGeometry width="160" relative="1" as="geometry">
            <mxPoint x="240" y="650" as="sourcePoint" />
            <mxPoint x="400" y="650" as="targetPoint" />
            <Array as="points">
              <mxPoint x="660" y="350" />
            </Array>
          </mxGeometry>
        </mxCell>
        <mxCell id="xym6LAQNSdxRwfko9QI_-63" value="&amp;lt;&amp;lt;include&amp;gt;&amp;gt;" style="html=1;verticalAlign=bottom;labelBackgroundColor=none;endArrow=open;endFill=0;dashed=1;rounded=0;exitX=0.5;exitY=0;exitDx=0;exitDy=0;entryX=0.039;entryY=0.731;entryDx=0;entryDy=0;entryPerimeter=0;" edge="1" parent="dNxyNK7c78bLwvsdeMH5-11" source="xym6LAQNSdxRwfko9QI_-11" target="xym6LAQNSdxRwfko9QI_-4">
          <mxGeometry width="160" relative="1" as="geometry">
            <mxPoint x="240" y="650" as="sourcePoint" />
            <mxPoint x="400" y="650" as="targetPoint" />
          </mxGeometry>
        </mxCell>
        <mxCell id="xym6LAQNSdxRwfko9QI_-64" value="Suivi de la progression academique" style="ellipse;whiteSpace=wrap;html=1;" vertex="1" parent="dNxyNK7c78bLwvsdeMH5-11">
          <mxGeometry x="660" y="360" width="140" height="70" as="geometry" />
        </mxCell>
        <mxCell id="xym6LAQNSdxRwfko9QI_-66" value="&amp;lt;&amp;lt;include&amp;gt;&amp;gt;" style="html=1;verticalAlign=bottom;labelBackgroundColor=none;endArrow=open;endFill=0;dashed=1;rounded=0;entryX=0.5;entryY=1;entryDx=0;entryDy=0;exitX=0;exitY=0;exitDx=0;exitDy=0;" edge="1" parent="dNxyNK7c78bLwvsdeMH5-11" source="xym6LAQNSdxRwfko9QI_-64" target="xym6LAQNSdxRwfko9QI_-4">
          <mxGeometry width="160" relative="1" as="geometry">
            <mxPoint x="710" y="340" as="sourcePoint" />
            <mxPoint x="760" y="400" as="targetPoint" />
          </mxGeometry>
        </mxCell>
        <mxCell id="xym6LAQNSdxRwfko9QI_-67" value="&amp;lt;&amp;lt;include&amp;gt;&amp;gt;" style="html=1;verticalAlign=bottom;labelBackgroundColor=none;endArrow=open;endFill=0;dashed=1;rounded=0;exitX=1;exitY=0;exitDx=0;exitDy=0;entryX=1;entryY=1;entryDx=0;entryDy=0;" edge="1" parent="dNxyNK7c78bLwvsdeMH5-11" source="xym6LAQNSdxRwfko9QI_-12" target="xym6LAQNSdxRwfko9QI_-4">
          <mxGeometry x="-0.1727" y="9" width="160" relative="1" as="geometry">
            <mxPoint x="350" y="400" as="sourcePoint" />
            <mxPoint x="510" y="400" as="targetPoint" />
            <Array as="points">
              <mxPoint x="440" y="540" />
              <mxPoint x="570" y="490" />
            </Array>
            <mxPoint as="offset" />
          </mxGeometry>
        </mxCell>
        <mxCell id="xym6LAQNSdxRwfko9QI_-70" value="&amp;lt;&amp;lt;include&amp;gt;&amp;gt;" style="html=1;verticalAlign=bottom;labelBackgroundColor=none;endArrow=open;endFill=0;dashed=1;rounded=0;exitX=1;exitY=0;exitDx=0;exitDy=0;entryX=0.707;entryY=0.986;entryDx=0;entryDy=0;entryPerimeter=0;" edge="1" parent="dNxyNK7c78bLwvsdeMH5-11" source="xym6LAQNSdxRwfko9QI_-13" target="xym6LAQNSdxRwfko9QI_-4">
          <mxGeometry width="160" relative="1" as="geometry">
            <mxPoint x="350" y="400" as="sourcePoint" />
            <mxPoint x="510" y="400" as="targetPoint" />
            <Array as="points">
              <mxPoint x="590" y="500" />
              <mxPoint x="650" y="450" />
              <mxPoint x="640" y="380" />
            </Array>
          </mxGeometry>
        </mxCell>
        <mxCell id="xym6LAQNSdxRwfko9QI_-73" value="&amp;lt;&amp;lt;include&amp;gt;&amp;gt;" style="html=1;verticalAlign=bottom;labelBackgroundColor=none;endArrow=open;endFill=0;dashed=1;rounded=0;exitX=1;exitY=0.5;exitDx=0;exitDy=0;entryX=0.957;entryY=0.813;entryDx=0;entryDy=0;entryPerimeter=0;" edge="1" parent="dNxyNK7c78bLwvsdeMH5-11" source="xym6LAQNSdxRwfko9QI_-14" target="xym6LAQNSdxRwfko9QI_-4">
          <mxGeometry x="0.6088" y="20" width="160" relative="1" as="geometry">
            <mxPoint x="410" y="420" as="sourcePoint" />
            <mxPoint x="570" y="420" as="targetPoint" />
            <Array as="points">
              <mxPoint x="890" y="570" />
              <mxPoint x="880" y="350" />
            </Array>
            <mxPoint as="offset" />
          </mxGeometry>
        </mxCell>
        <mxCell id="xym6LAQNSdxRwfko9QI_-76" value="&amp;lt;&amp;lt;include&amp;gt;&amp;gt;" style="html=1;verticalAlign=bottom;labelBackgroundColor=none;endArrow=open;endFill=0;dashed=1;rounded=0;exitX=1.006;exitY=0.385;exitDx=0;exitDy=0;exitPerimeter=0;" edge="1" parent="dNxyNK7c78bLwvsdeMH5-11" source="xym6LAQNSdxRwfko9QI_-17">
          <mxGeometry width="160" relative="1" as="geometry">
            <mxPoint x="320" y="780" as="sourcePoint" />
            <mxPoint x="480" y="790" as="targetPoint" />
          </mxGeometry>
        </mxCell>
        <mxCell id="xym6LAQNSdxRwfko9QI_-77" value="&amp;lt;&amp;lt;include&amp;gt;&amp;gt;" style="html=1;verticalAlign=bottom;labelBackgroundColor=none;endArrow=open;endFill=0;dashed=1;rounded=0;exitX=0.5;exitY=0;exitDx=0;exitDy=0;entryX=1;entryY=1;entryDx=0;entryDy=0;" edge="1" parent="dNxyNK7c78bLwvsdeMH5-11" source="xym6LAQNSdxRwfko9QI_-18" target="xym6LAQNSdxRwfko9QI_-4">
          <mxGeometry width="160" relative="1" as="geometry">
            <mxPoint x="690" y="640" as="sourcePoint" />
            <mxPoint x="850" y="640" as="targetPoint" />
            <Array as="points">
              <mxPoint x="800" y="350" />
            </Array>
          </mxGeometry>
        </mxCell>
        <mxCell id="xym6LAQNSdxRwfko9QI_-81" value="&amp;lt;&amp;lt;extend&amp;gt;&amp;gt;" style="html=1;verticalAlign=bottom;labelBackgroundColor=none;endArrow=open;endFill=0;dashed=1;rounded=0;entryX=0.998;entryY=0.589;entryDx=0;entryDy=0;entryPerimeter=0;" edge="1" parent="dNxyNK7c78bLwvsdeMH5-11" source="xym6LAQNSdxRwfko9QI_-17" target="xym6LAQNSdxRwfko9QI_-5">
          <mxGeometry x="-0.7326" y="-7" width="160" relative="1" as="geometry">
            <mxPoint x="300" y="780" as="sourcePoint" />
            <mxPoint x="460" y="780" as="targetPoint" />
            <mxPoint as="offset" />
          </mxGeometry>
        </mxCell>
        <mxCell id="xym6LAQNSdxRwfko9QI_-46" style="edgeStyle=orthogonalEdgeStyle;rounded=0;orthogonalLoop=1;jettySize=auto;html=1;exitX=0.5;exitY=0.5;exitDx=0;exitDy=0;exitPerimeter=0;" edge="1" parent="1" source="xym6LAQNSdxRwfko9QI_-21" target="xym6LAQNSdxRwfko9QI_-20">
          <mxGeometry relative="1" as="geometry" />
        </mxCell>
        <mxCell id="xym6LAQNSdxRwfko9QI_-47" style="edgeStyle=orthogonalEdgeStyle;rounded=0;orthogonalLoop=1;jettySize=auto;html=1;exitX=0.5;exitY=0.5;exitDx=0;exitDy=0;exitPerimeter=0;entryX=0;entryY=0.5;entryDx=0;entryDy=0;" edge="1" parent="1" source="xym6LAQNSdxRwfko9QI_-21" target="xym6LAQNSdxRwfko9QI_-19">
          <mxGeometry relative="1" as="geometry" />
        </mxCell>
        <mxCell id="xym6LAQNSdxRwfko9QI_-21" value="Visiteur" style="shape=umlActor;verticalLabelPosition=bottom;verticalAlign=top;html=1;" vertex="1" parent="1">
          <mxGeometry x="414" y="-1140" width="46" height="80" as="geometry" />
        </mxCell>
        <mxCell id="xym6LAQNSdxRwfko9QI_-39" style="edgeStyle=orthogonalEdgeStyle;rounded=0;orthogonalLoop=1;jettySize=auto;html=1;exitX=0.5;exitY=0.5;exitDx=0;exitDy=0;exitPerimeter=0;entryX=0;entryY=0;entryDx=0;entryDy=0;" edge="1" parent="1" source="xym6LAQNSdxRwfko9QI_-26" target="xym6LAQNSdxRwfko9QI_-7">
          <mxGeometry relative="1" as="geometry">
            <Array as="points">
              <mxPoint x="437" y="-850" />
              <mxPoint x="550" y="-850" />
              <mxPoint x="550" y="-820" />
            </Array>
          </mxGeometry>
        </mxCell>
        <mxCell id="xym6LAQNSdxRwfko9QI_-41" style="edgeStyle=orthogonalEdgeStyle;rounded=0;orthogonalLoop=1;jettySize=auto;html=1;exitX=0.5;exitY=0.5;exitDx=0;exitDy=0;exitPerimeter=0;entryX=0;entryY=0.5;entryDx=0;entryDy=0;" edge="1" parent="1" source="xym6LAQNSdxRwfko9QI_-26" target="xym6LAQNSdxRwfko9QI_-8">
          <mxGeometry relative="1" as="geometry">
            <Array as="points">
              <mxPoint x="437" y="-850" />
              <mxPoint x="553" y="-850" />
              <mxPoint x="553" y="-905" />
            </Array>
          </mxGeometry>
        </mxCell>
        <mxCell id="xym6LAQNSdxRwfko9QI_-42" style="edgeStyle=orthogonalEdgeStyle;rounded=0;orthogonalLoop=1;jettySize=auto;html=1;exitX=0.5;exitY=0.5;exitDx=0;exitDy=0;exitPerimeter=0;entryX=0;entryY=0.5;entryDx=0;entryDy=0;" edge="1" parent="1" source="xym6LAQNSdxRwfko9QI_-26" target="xym6LAQNSdxRwfko9QI_-9">
          <mxGeometry relative="1" as="geometry">
            <Array as="points">
              <mxPoint x="437" y="-850" />
              <mxPoint x="990" y="-850" />
            </Array>
          </mxGeometry>
        </mxCell>
        <mxCell id="xym6LAQNSdxRwfko9QI_-44" style="edgeStyle=orthogonalEdgeStyle;rounded=0;orthogonalLoop=1;jettySize=auto;html=1;exitX=0.5;exitY=0.5;exitDx=0;exitDy=0;exitPerimeter=0;entryX=0;entryY=0;entryDx=0;entryDy=0;" edge="1" parent="1" source="xym6LAQNSdxRwfko9QI_-26" target="xym6LAQNSdxRwfko9QI_-10">
          <mxGeometry relative="1" as="geometry">
            <Array as="points">
              <mxPoint x="437" y="-850" />
              <mxPoint x="760" y="-850" />
            </Array>
          </mxGeometry>
        </mxCell>
        <mxCell id="xym6LAQNSdxRwfko9QI_-54" style="edgeStyle=orthogonalEdgeStyle;rounded=0;orthogonalLoop=1;jettySize=auto;html=1;exitX=1;exitY=1;exitDx=0;exitDy=0;exitPerimeter=0;entryX=0;entryY=0.5;entryDx=0;entryDy=0;" edge="1" parent="1" source="xym6LAQNSdxRwfko9QI_-26" target="xym6LAQNSdxRwfko9QI_-18">
          <mxGeometry relative="1" as="geometry" />
        </mxCell>
        <mxCell id="xym6LAQNSdxRwfko9QI_-65" style="edgeStyle=orthogonalEdgeStyle;rounded=0;orthogonalLoop=1;jettySize=auto;html=1;exitX=0.5;exitY=0.5;exitDx=0;exitDy=0;exitPerimeter=0;entryX=0;entryY=0.5;entryDx=0;entryDy=0;" edge="1" parent="1" source="xym6LAQNSdxRwfko9QI_-26" target="xym6LAQNSdxRwfko9QI_-64">
          <mxGeometry relative="1" as="geometry">
            <Array as="points">
              <mxPoint x="437" y="-850" />
              <mxPoint x="1200" y="-850" />
            </Array>
          </mxGeometry>
        </mxCell>
        <mxCell id="xym6LAQNSdxRwfko9QI_-26" value="Etudiant" style="shape=umlActor;verticalLabelPosition=bottom;verticalAlign=top;html=1;" vertex="1" parent="1">
          <mxGeometry x="418" y="-910" width="38" height="80" as="geometry" />
        </mxCell>
        <mxCell id="xym6LAQNSdxRwfko9QI_-48" style="edgeStyle=orthogonalEdgeStyle;rounded=0;orthogonalLoop=1;jettySize=auto;html=1;exitX=0.5;exitY=0.5;exitDx=0;exitDy=0;exitPerimeter=0;entryX=0;entryY=0.5;entryDx=0;entryDy=0;" edge="1" parent="1" source="xym6LAQNSdxRwfko9QI_-27" target="xym6LAQNSdxRwfko9QI_-13">
          <mxGeometry relative="1" as="geometry">
            <Array as="points">
              <mxPoint x="770" y="-650" />
            </Array>
          </mxGeometry>
        </mxCell>
        <mxCell id="xym6LAQNSdxRwfko9QI_-49" style="edgeStyle=orthogonalEdgeStyle;rounded=0;orthogonalLoop=1;jettySize=auto;html=1;exitX=1;exitY=1;exitDx=0;exitDy=0;exitPerimeter=0;entryX=0;entryY=0.5;entryDx=0;entryDy=0;" edge="1" parent="1" source="xym6LAQNSdxRwfko9QI_-27" target="xym6LAQNSdxRwfko9QI_-12">
          <mxGeometry relative="1" as="geometry" />
        </mxCell>
        <mxCell id="xym6LAQNSdxRwfko9QI_-51" style="edgeStyle=orthogonalEdgeStyle;rounded=0;orthogonalLoop=1;jettySize=auto;html=1;exitX=0.5;exitY=0.5;exitDx=0;exitDy=0;exitPerimeter=0;entryX=0;entryY=1;entryDx=0;entryDy=0;" edge="1" parent="1" source="xym6LAQNSdxRwfko9QI_-27" target="xym6LAQNSdxRwfko9QI_-14">
          <mxGeometry relative="1" as="geometry">
            <Array as="points">
              <mxPoint x="710" y="-650" />
              <mxPoint x="710" y="-600" />
              <mxPoint x="1001" y="-600" />
            </Array>
          </mxGeometry>
        </mxCell>
        <mxCell id="xym6LAQNSdxRwfko9QI_-52" style="edgeStyle=orthogonalEdgeStyle;rounded=0;orthogonalLoop=1;jettySize=auto;html=1;exitX=0.5;exitY=0.5;exitDx=0;exitDy=0;exitPerimeter=0;entryX=0;entryY=0.5;entryDx=0;entryDy=0;" edge="1" parent="1" source="xym6LAQNSdxRwfko9QI_-27" target="xym6LAQNSdxRwfko9QI_-15">
          <mxGeometry relative="1" as="geometry">
            <Array as="points">
              <mxPoint x="710" y="-650" />
              <mxPoint x="710" y="-600" />
              <mxPoint x="990" y="-600" />
            </Array>
          </mxGeometry>
        </mxCell>
        <mxCell id="xym6LAQNSdxRwfko9QI_-53" style="edgeStyle=orthogonalEdgeStyle;rounded=0;orthogonalLoop=1;jettySize=auto;html=1;exitX=0.5;exitY=0.5;exitDx=0;exitDy=0;exitPerimeter=0;entryX=0;entryY=0.5;entryDx=0;entryDy=0;" edge="1" parent="1" source="xym6LAQNSdxRwfko9QI_-27" target="xym6LAQNSdxRwfko9QI_-16">
          <mxGeometry relative="1" as="geometry">
            <Array as="points">
              <mxPoint x="710" y="-650" />
              <mxPoint x="710" y="-600" />
              <mxPoint x="1220" y="-600" />
            </Array>
          </mxGeometry>
        </mxCell>
        <mxCell id="xym6LAQNSdxRwfko9QI_-55" style="edgeStyle=orthogonalEdgeStyle;rounded=0;orthogonalLoop=1;jettySize=auto;html=1;exitX=1;exitY=0.3333333333333333;exitDx=0;exitDy=0;exitPerimeter=0;entryX=0;entryY=1;entryDx=0;entryDy=0;" edge="1" parent="1" source="xym6LAQNSdxRwfko9QI_-27" target="xym6LAQNSdxRwfko9QI_-18">
          <mxGeometry relative="1" as="geometry">
            <Array as="points">
              <mxPoint x="456" y="-720" />
              <mxPoint x="1300" y="-720" />
            </Array>
          </mxGeometry>
        </mxCell>
        <mxCell id="xym6LAQNSdxRwfko9QI_-27" value="Professeur" style="shape=umlActor;verticalLabelPosition=bottom;verticalAlign=top;html=1;" vertex="1" parent="1">
          <mxGeometry x="418" y="-690" width="38" height="80" as="geometry" />
        </mxCell>
        <mxCell id="xym6LAQNSdxRwfko9QI_-37" style="edgeStyle=orthogonalEdgeStyle;rounded=0;orthogonalLoop=1;jettySize=auto;html=1;exitX=0.5;exitY=0.5;exitDx=0;exitDy=0;exitPerimeter=0;entryX=0;entryY=0.5;entryDx=0;entryDy=0;" edge="1" parent="1" source="xym6LAQNSdxRwfko9QI_-28" target="xym6LAQNSdxRwfko9QI_-5">
          <mxGeometry relative="1" as="geometry" />
        </mxCell>
        <mxCell id="xym6LAQNSdxRwfko9QI_-38" style="edgeStyle=orthogonalEdgeStyle;rounded=0;orthogonalLoop=1;jettySize=auto;html=1;exitX=0.5;exitY=0.5;exitDx=0;exitDy=0;exitPerimeter=0;" edge="1" parent="1" source="xym6LAQNSdxRwfko9QI_-28" target="xym6LAQNSdxRwfko9QI_-6">
          <mxGeometry relative="1" as="geometry">
            <Array as="points">
              <mxPoint x="530" y="-440" />
              <mxPoint x="530" y="-375" />
            </Array>
          </mxGeometry>
        </mxCell>
        <mxCell id="xym6LAQNSdxRwfko9QI_-50" style="edgeStyle=orthogonalEdgeStyle;rounded=0;orthogonalLoop=1;jettySize=auto;html=1;exitX=0.5;exitY=0.5;exitDx=0;exitDy=0;exitPerimeter=0;" edge="1" parent="1" source="xym6LAQNSdxRwfko9QI_-28" target="xym6LAQNSdxRwfko9QI_-17">
          <mxGeometry relative="1" as="geometry">
            <Array as="points">
              <mxPoint x="570" y="-440" />
              <mxPoint x="570" y="-385" />
            </Array>
          </mxGeometry>
        </mxCell>
        <mxCell id="xym6LAQNSdxRwfko9QI_-56" style="edgeStyle=orthogonalEdgeStyle;rounded=0;orthogonalLoop=1;jettySize=auto;html=1;exitX=1;exitY=0.3333333333333333;exitDx=0;exitDy=0;exitPerimeter=0;entryX=1;entryY=1;entryDx=0;entryDy=0;" edge="1" parent="1" source="xym6LAQNSdxRwfko9QI_-28" target="xym6LAQNSdxRwfko9QI_-18">
          <mxGeometry relative="1" as="geometry">
            <Array as="points">
              <mxPoint x="456" y="-480" />
              <mxPoint x="1399" y="-480" />
            </Array>
          </mxGeometry>
        </mxCell>
        <mxCell id="xym6LAQNSdxRwfko9QI_-28" value="Administrateur" style="shape=umlActor;verticalLabelPosition=bottom;verticalAlign=top;html=1;" vertex="1" parent="1">
          <mxGeometry x="418" y="-480" width="38" height="80" as="geometry" />
        </mxCell>
        <mxCell id="xym6LAQNSdxRwfko9QI_-34" value="&amp;lt;&amp;lt;actor&amp;gt;&amp;gt;&lt;br&gt;&lt;br&gt;&lt;b&gt;Systeme&lt;/b&gt;" style="html=1;align=center;verticalAlign=middle;dashed=0;whiteSpace=wrap;" vertex="1" parent="1">
          <mxGeometry x="1480" y="-775" width="160" height="70" as="geometry" />
        </mxCell>
        <mxCell id="xym6LAQNSdxRwfko9QI_-40" style="edgeStyle=orthogonalEdgeStyle;rounded=0;orthogonalLoop=1;jettySize=auto;html=1;exitX=0.5;exitY=0.5;exitDx=0;exitDy=0;exitPerimeter=0;entryX=0.021;entryY=0.694;entryDx=0;entryDy=0;entryPerimeter=0;" edge="1" parent="1" source="xym6LAQNSdxRwfko9QI_-27" target="xym6LAQNSdxRwfko9QI_-7">
          <mxGeometry relative="1" as="geometry" />
        </mxCell>
        <mxCell id="xym6LAQNSdxRwfko9QI_-60" value="&amp;lt;&amp;lt;include&amp;gt;&amp;gt;" style="html=1;verticalAlign=bottom;labelBackgroundColor=none;endArrow=open;endFill=0;dashed=1;rounded=0;entryX=0;entryY=0;entryDx=0;entryDy=0;" edge="1" parent="1" target="xym6LAQNSdxRwfko9QI_-4">
          <mxGeometry width="160" relative="1" as="geometry">
            <mxPoint x="800" y="-900" as="sourcePoint" />
            <mxPoint x="940" y="-1010" as="targetPoint" />
            <Array as="points">
              <mxPoint x="1000" y="-1009" />
            </Array>
          </mxGeometry>
        </mxCell>
        <mxCell id="xym6LAQNSdxRwfko9QI_-74" value="&amp;lt;&amp;lt;include&amp;gt;&amp;gt;" style="html=1;verticalAlign=bottom;labelBackgroundColor=none;endArrow=open;endFill=0;dashed=1;rounded=0;exitX=1;exitY=0.5;exitDx=0;exitDy=0;" edge="1" parent="1" source="xym6LAQNSdxRwfko9QI_-15">
          <mxGeometry width="160" relative="1" as="geometry">
            <mxPoint x="1160" y="-530" as="sourcePoint" />
            <mxPoint x="1190" y="-650" as="targetPoint" />
          </mxGeometry>
        </mxCell>
        <mxCell id="xym6LAQNSdxRwfko9QI_-75" value="&amp;lt;&amp;lt;include&amp;gt;&amp;gt;" style="html=1;verticalAlign=bottom;labelBackgroundColor=none;endArrow=open;endFill=0;dashed=1;rounded=0;exitX=1;exitY=0;exitDx=0;exitDy=0;" edge="1" parent="1" source="xym6LAQNSdxRwfko9QI_-16">
          <mxGeometry x="0.5723" y="-27" width="160" relative="1" as="geometry">
            <mxPoint x="1080" y="-820" as="sourcePoint" />
            <mxPoint x="1380" y="-660" as="targetPoint" />
            <Array as="points">
              <mxPoint x="1330" y="-650" />
            </Array>
            <mxPoint as="offset" />
          </mxGeometry>
        </mxCell>
      </root>
    </mxGraphModel>
  </diagram>
</mxfile>
